<svg xmlns="http://www.w3.org/2000/svg" viewBox="0 0 24 24"><g><g><path fill="#fff" d="M23.458 18.99l-3.705-3.715c-.738-.737-1.96-.715-2.724.051l-1.867 1.872-.368-.206c-1.179-.655-2.792-1.552-4.49-3.257-1.703-1.707-2.6-3.327-3.254-4.51l-.2-.36L8.101 7.61l.616-.619c.765-.767.786-1.992.05-2.731L5.061.543c-.736-.738-1.959-.715-2.724.052L1.294 1.648l.029.028a6.06 6.06 0 0 0-.86 1.522C.26 3.728.135 4.235.078 4.742-.41 8.81 1.443 12.527 6.473 17.571c6.954 6.972 12.557 6.445 12.799 6.42a6.245 6.245 0 0 0 1.544-.39 6.016 6.016 0 0 0 1.512-.859l.023.02 1.058-1.038c.764-.768.785-1.993.05-2.733z"/></g></g></svg>
